#!OML:ASF X:\für Bonn\!DataBase\2005_08_10_Bjorn_Final\c3d\bjorn.ASF
:FULLY-SPECIFIED
:DEGREES
648
root 0.473373 1.62341 20.4823 -275.591 -4.0928 -540.185
lowerback 5.60854 2.13287 0.154816
upperback 3.70357 2.55029 -3.26317
thorax 0.830193 1.1767 -3.56989
lowerneck -16.113 -4.54994 -1.51792
upperneck 11.2013 -7.0525 6.58451
head 6.34159 -3.07459 1.61638
rclavicle -1.03368e-014 -2.80286e-014
rhumerus -34.9692 9.16343 -62.3272
rradius 77.567
rwrist -4.13332
rhand -14.8961 12.176
rfingers 7.12502
rthumb 11.265 -17.5015
lclavicle -1.03368e-014 -2.80286e-014
lhumerus -24.7447 -34.7859 59.611
lradius 63.3884
lwrist -11.0541
lhand -49.2808 -371.008
lfingers 7.12502
lthumb -21.8986 17.7725
rfemur 11.9587 -7.32898 8.25642
rtibia 2.62396e-014
rfoot 16.9396 -9.9738
rtoes 3.37724
lfemur -43.5054 12.0009 -0.375076
ltibia 112.135
lfoot 31.0761 -5.32411
ltoes 1.19873
649
root 0.465463 1.62475 20.4838 -275.529 -4.12413 -539.958
lowerback 5.50844 2.04979 0.195196
upperback 3.66905 2.45168 -3.23672
thorax 0.844366 1.13218 -3.55767
lowerneck -16.1647 -4.61635 -1.52629
upperneck 11.2294 -7.159 6.6489
head 6.3668 -3.1224 1.6251
rclavicle 1.19271e-014 -3.08613e-014
rhumerus -35.0687 8.99561 -62.6764
rradius 76.3879
rwrist -4.28893
rhand -14.7718 12.0698
rfingers 7.12502
rthumb 11.3848 -17.6012
lclavicle 1.19271e-014 -3.08613e-014
lhumerus -25.3117 -34.4367 60.3473
lradius 63.0079
lwrist -10.8857
lhand -49.2618 -370.881
lfingers 7.12502
lthumb -21.8804 17.9014
rfemur 11.9465 -7.56486 8.14312
rtibia 8.74653e-015
rfoot 16.6512 -10.3421
rtoes 3.27692
lfemur -43.7494 11.2173 -0.771901
ltibia 112.181
lfoot 30.9119 -4.8758
ltoes 0.725409
650
root 0.45877 1.6262 20.4862 -275.441 -4.14018 -539.718
lowerback 5.37867 1.94495 0.210877
upperback 3.62765 2.32592 -3.18415
thorax 0.863891 1.07459 -3.50257
lowerneck -16.2065 -4.67347 -1.59725
upperneck 11.2369 -7.23923 6.73691
head 6.38589 -3.15803 1.65455
rclavicle -2.70347e-014 1.07841e-014
rhumerus -35.1184 8.85442 -62.9806
rradius 75.1965
rwrist -4.28731
rhand -14.5998 11.942
rfingers 7.12502
rthumb 11.5507 -17.7197
lclavicle -2.70347e-014 1.07841e-014
lhumerus -25.9307 -34.0626 61.0854
lradius 62.6663
lwrist -10.7397
lhand -49.2466 -370.728
lfingers 7.12502
lthumb -21.8658 18.0569
rfemur 11.8944 -7.82101 8.05398
rtibia -1.59028e-015
rfoot 16.4502 -10.6175
rtoes 3.50025
lfemur -44.0337 10.4427 -1.15354
ltibia 112.23
lfoot 30.7593 -4.47111
ltoes 0.157562
651
root 0.451289 1.62735 20.4868 -275.368 -4.17017 -539.475
lowerback 5.25908 1.86025 0.22624
upperback 3.59181 2.22468 -3.14482
thorax 0.885841 1.02842 -3.46267
lowerneck -16.2544 -4.74705 -1.62664
upperneck 11.2716 -7.34179 6.75959
head 6.41144 -3.20698 1.65381
rclavicle 3.97569e-015 -2.98177e-015
rhumerus -35.1921 8.6811 -63.2544
rradius 73.9972
rwrist -4.15903
rhand -14.4318 11.8001
rfingers 7.12502
rthumb 11.7127 -17.8524
lclavicle 3.97569e-015 -2.98177e-015
lhumerus -26.4839 -33.7669 61.7759
lradius 62.3422
lwrist -10.6519
lhand -49.1101 -370.656
lfingers 7.12502
lthumb -21.7347 18.1435
rfemur 11.8471 -8.07677 7.94943
rtibia -5.1684e-014
rfoot 16.2868 -10.8169
rtoes 3.52488
lfemur -44.3032 9.64843 -1.54328
ltibia 112.278
lfoot 30.6162 -4.03436
ltoes -0.287593
652
root 0.444237 1.62854 20.4881 -275.304 -4.21541 -539.209
lowerback 5.16351 1.75612 0.206688
upperback 3.5475 2.09574 -3.10618
thorax 0.882764 0.967631 -3.40389
lowerneck -16.2898 -4.79438 -1.67426
upperneck 11.2978 -7.40965 6.81747
head 6.43297 -3.2373 1.67124
rclavicle 2.38542e-015 3.08613e-014
rhumerus -35.2541 8.55112 -63.5302
rradius 72.8408
rwrist -3.93146
rhand -14.2024 11.5886
rfingers 7.12502
rthumb 11.934 -18.0512
lclavicle 2.38542e-015 3.08613e-014
lhumerus -27.077 -33.449 62.4601
lradius 62.0448
lwrist -10.6398
lhand -48.9506 -370.694
lfingers 7.12502
lthumb -21.5816 18.1234
rfemur 11.81 -8.35126 7.82716
rtibia -2.14687e-014
rfoot 16.172 -10.9863
rtoes 3.6411
lfemur -44.5664 8.8048 -1.95776
ltibia 112.328
lfoot 30.4643 -3.61228
ltoes -0.730217
653
root 0.438304 1.62977 20.4898 -275.223 -4.24637 -538.958
lowerback 5.03602 1.66208 0.196578
upperback 3.50842 1.98081 -3.06995
thorax 0.904463 0.914049 -3.35268
lowerneck -16.3174 -4.8528 -1.73362
upperneck 11.3109 -7.48974 6.879
head 6.45018 -3.2744 1.69057
rclavicle 2.54444e-014 -5.31749e-015
rhumerus -35.3223 8.46912 -63.8045
rradius 71.7151
rwrist -3.67935
rhand -14.029 11.3164
rfingers 7.12502
rthumb 12.1012 -18.3136
lclavicle 2.54444e-014 -5.31749e-015
lhumerus -27.6444 -33.2313 63.0969
lradius 61.7995
lwrist -10.5647
lhand -48.7542 -370.782
lfingers 7.12502
lthumb -21.393 18.0572
rfemur 11.7549 -8.61784 7.72944
rtibia -3.26007e-014
rfoot 16.0923 -11.1167
rtoes 3.61702
lfemur -44.8392 7.99554 -2.34443
ltibia 112.379
lfoot 30.3375 -3.18311
ltoes -1.03956
654
root 0.432004 1.6313 20.4902 -275.16 -4.29143 -538.677
lowerback 4.91636 1.57476 0.178365
upperback 3.48322 1.87267 -3.04885
thorax 0.937066 0.863077 -3.31325
lowerneck -16.3902 -4.9166 -1.74032
upperneck 11.3573 -7.58574 6.90231
head 6.48291 -3.31836 1.68629
rclavicle -3.97569e-014 2.01269e-014
rhumerus -35.3871 8.37511 -64.0858
rradius 70.5978
rwrist -3.45566
rhand -13.8644 11.0298
rfingers 7.12502
rthumb 12.2598 -18.5909
lclavicle -3.97569e-014 2.01269e-014
lhumerus -28.1587 -33.0867 63.7014
lradius 61.5365
lwrist -10.4941
lhand -48.5443 -370.899
lfingers 7.12502
lthumb -21.1913 17.9627
rfemur 11.7305 -8.90822 7.61154
rtibia 2.70347e-014
rfoot 16.0611 -11.2462
rtoes 3.84267
lfemur -45.094 7.13691 -2.74364
ltibia 112.423
lfoot 30.2212 -2.69368
ltoes -1.16421
655
root 0.427121 1.63301 20.4903 -275.096 -4.32497 -538.418
lowerback 4.80874 1.48778 0.150709
upperback 3.4459 1.76476 -3.01929
thorax 0.950048 0.812005 -3.26049
lowerneck -16.4406 -4.96296 -1.75731
upperneck 11.4025 -7.65513 6.92821
head 6.51079 -3.34968 1.68791
rclavicle -1.03368e-014 -1.635e-014
rhumerus -35.4472 8.32762 -64.3652
rradius 69.48
rwrist -3.19533
rhand -13.6316 10.8112
rfingers 7.12502
rthumb 12.4843 -18.7959
lclavicle -1.03368e-014 -1.635e-014
lhumerus -28.7275 -32.9512 64.3179
lradius 61.3071
lwrist -10.5301
lhand -48.2958 -370.951
lfingers 7.12502
lthumb -20.9527 17.9376
rfemur 11.7148 -9.17862 7.50953
rtibia 1.66979e-014
rfoot 16.0324 -11.3662
rtoes 4.39446
lfemur -45.3356 6.30594 -3.11216
ltibia 112.475
lfoot 30.1011 -2.26871
ltoes -1.35663
656
root 0.42194 1.63531 20.4902 -275.035 -4.35581 -538.15
lowerback 4.67692 1.4134 0.149166
upperback 3.42986 1.67319 -3.01586
thorax 1.00138 0.76917 -3.24955
lowerneck -16.4606 -5.02175 -1.75896
upperneck 11.3767 -7.74669 6.98126
head 6.51255 -3.39245 1.69434
rclavicle 9.54166e-015 4.27387e-015
rhumerus -35.514 8.25281 -64.6596
rradius 68.3793
rwrist -2.94454
rhand -13.4123 10.6757
rfingers 7.12502
rthumb 12.6958 -18.9184
lclavicle 9.54166e-015 4.27387e-015
lhumerus -29.2131 -32.9341 64.8509
lradius 61.0978
lwrist -10.5891
lhand -48.0648 -370.947
lfingers 7.12502
lthumb -20.7307 17.9661
rfemur 11.704 -9.45853 7.41277
rtibia 5.56597e-015
rfoot 16.0654 -11.4783
rtoes 4.813
lfemur -45.5624 5.44503 -3.47932
ltibia 112.52
lfoot 29.9835 -1.81407
ltoes -1.4025
